<?xml version="1.0" encoding="UTF-8" standalone="no"?>
<!-- Created with Inkscape (http://www.inkscape.org/) -->

<svg
   width="165.07457mm"
   height="115.25227mm"
   viewBox="0 0 165.07457 115.25227"
   version="1.1"
   id="svg5"
   xml:space="preserve"
   xmlns="http://www.w3.org/2000/svg"
   xmlns:svg="http://www.w3.org/2000/svg"><defs
     id="defs2" /><g
     id="layer1"
     transform="translate(-25.882034,-87.775931)"><path
       style="fill:#007667;stroke-width:0.264583"
       d="m 97.217844,201.51045 c -1.42928,-1.86565 -2.51935,-3.5855 -2.99681,-4.72823 -0.3133,-0.74983 -0.30646,-0.91642 0.0523,-1.27521 0.66884,-0.66884 1.36889,-0.37548 1.56772,0.65694 0.11898,0.61785 1.83071,3.30342 2.28415,3.58366 0.12496,0.0772 0.22849,-0.96793 0.23006,-2.32259 0.004,-3.72176 0.76918,-15.46316 1.13242,-17.38385 0.35788,-1.89229 1.013086,-2.63173 1.615066,-1.82268 0.27452,0.36896 0.27372,0.76741 -0.004,2.11918 -0.33225,1.61562 -1.157236,14.19894 -1.158126,17.66469 l -5.3e-4,1.71744 1.435416,-2.14401 c 1.62832,-2.432 4.2641,-5.39191 4.80156,-5.39191 0.19748,0 0.48415,0.23373 0.63703,0.5194 0.23712,0.44305 0.0375,0.78331 -1.35835,2.3151 -0.89997,0.98764 -2.50267,3.11958 -3.56155,4.73765 -1.75785,2.68618 -2.333806,3.25253 -3.327626,3.27216 -0.10064,0.002 -0.70746,-0.681 -1.3485,-1.51774 z M 39.509411,175.62176 c -0.103439,-0.26957 0.223324,-1.29483 0.813514,-2.5525 l 0.986396,-2.10198 -1.404581,-1.29816 c -0.951216,-0.87915 -1.352769,-1.43318 -1.244065,-1.71647 0.08829,-0.23006 0.160517,-0.46809 0.160517,-0.52895 0,-0.42426 1.040461,0.0615 2.066912,0.96506 1.347383,1.18601 1.108408,1.23787 2.411648,-0.52333 0.307538,-0.41561 0.624022,-0.58002 0.90728,-0.47133 0.610171,0.23415 0.54112,1.17992 -0.166897,2.28598 -0.331038,0.51714 -0.751239,1.17839 -0.933778,1.46943 -0.182538,0.29104 -0.68867,1.30307 -1.124735,2.24896 -0.436068,0.94588 -0.891231,1.89838 -1.011473,2.11666 -0.316553,0.57465 -1.254858,0.64314 -1.460738,0.10663 z m -6.401668,-0.20842 c -0.30729,-0.80078 0.01736,-6.09609 0.423011,-6.89979 0.767371,-1.52035 3.080302,-2.51105 3.914605,-1.67675 0.5437,0.5437 0.369663,2.17763 -0.343958,3.2292 -0.363802,0.5361 -0.661458,1.07921 -0.661458,1.20693 0,0.12772 0.486777,0.64888 1.081727,1.15814 0.687631,0.58858 1.047999,1.10105 0.98915,1.40664 -0.174649,0.90687 -1.009406,0.69428 -2.416505,-0.61541 l -1.374164,-1.27904 -0.132292,1.85208 c -0.119509,1.67314 -0.189926,1.86027 -0.728787,1.93679 -0.351692,0.0499 -0.66004,-0.0809 -0.751329,-0.31879 z m 2.692133,-6.28957 c 0.502216,-0.97118 0.40023,-1.13715 -0.368083,-0.59901 -0.333616,0.23368 -0.57935,0.68662 -0.57935,1.06787 0,0.80775 0.386069,0.61669 0.947433,-0.46886 z m -6.219679,5.22414 c -0.191813,-0.23112 -0.320009,-1.49174 -0.336331,-3.30729 l -0.02637,-2.93382 -1.349713,-0.004 c -1.629249,-0.005 -2.086211,-0.25359 -1.968175,-1.07117 0.08421,-0.58328 0.217369,-0.62426 2.338253,-0.71952 5.206568,-0.23386 4.894791,-0.26391 4.894791,0.47183 0,0.5402 -0.1455,0.6766 -0.79375,0.74406 -1.258234,0.13095 -1.455208,0.63875 -1.455208,3.75151 0,1.83039 -0.110458,2.91738 -0.3175,3.12443 -0.411425,0.41142 -0.607319,0.4003 -0.985996,-0.056 z m 37.389557,0.0611 c -0.106198,-0.17184 -0.230261,-2.00519 -0.275698,-4.07412 l -0.08261,-3.7617 1.081217,-0.43261 c 0.594669,-0.23794 1.586672,-0.5019 2.204453,-0.58658 0.913346,-0.12519 1.156284,-0.0678 1.300096,0.30694 0.262197,0.68327 -0.230947,1.10348 -1.711947,1.45877 -1.12423,0.2697 -1.312119,0.40312 -1.243666,0.88314 0.0698,0.48944 0.254598,0.56549 1.374886,0.56572 2.252432,5.3e-4 2.368608,1.47883 0.145725,1.85439 -1.024967,0.17316 -1.043101,0.19596 -1.043101,1.31152 v 1.13529 l 1.20215,-0.25639 c 1.441534,-0.30745 1.972849,-0.14847 1.972849,0.59032 0,0.37862 -0.28702,0.6709 -0.917543,0.93435 -1.1093,0.46349 -3.735466,0.51 -4.00681,0.071 z m -12.749812,-1.06346 c -0.207841,-0.20784 -0.3175,-1.30679 -0.3175,-3.18179 v -2.8643 l -0.727604,0.37182 c -0.975596,0.49854 -1.989175,0.1382 -1.8707,-0.66507 0.117727,-0.7982 1.491216,-1.23596 3.954971,-1.26053 1.482452,-0.0148 2.104807,0.0843 2.344703,0.37338 0.579466,0.69821 0.116998,1.19402 -1.11338,1.19365 l -1.132782,-2.7e-4 0.153067,2.84462 c 0.08875,1.64929 0.04734,2.98359 -0.09854,3.17534 -0.317506,0.41735 -0.782945,0.42252 -1.192231,0.0132 z m 32.423188,-0.0525 c -0.586888,-0.58688 -1.118716,-5.45181 -0.726054,-6.64158 0.556406,-1.68593 2.803726,-2.53241 4.174408,-1.57235 0.839549,0.58805 0.78676,1.95719 -0.116864,3.03109 -0.387696,0.46075 -0.594624,0.91637 -0.459835,1.01249 0.134787,0.0961 0.73964,0.49735 1.34412,0.89164 1.385886,0.90398 1.574506,1.21449 1.053926,1.73507 -0.37934,0.37935 -0.51222,0.37377 -1.478669,-0.062 -0.584028,-0.26336 -1.262446,-0.70047 -1.507596,-0.97135 -0.710192,-0.78476 -0.892876,-0.58969 -0.892876,0.95338 0,1.15777 -0.101785,1.50037 -0.510791,1.71926 -0.377331,0.20194 -0.607203,0.17696 -0.879769,-0.0956 z m 2.175002,-6.22716 c 0.375425,-0.70149 0.34807,-0.81114 -0.202359,-0.81114 -0.623091,0 -1.10654,0.49816 -0.929976,0.95828 0.202287,0.52715 0.814007,0.44766 1.132335,-0.14714 z m -29.480315,6.00188 c -0.299652,-0.95047 -0.309526,-5.52404 -0.01281,-5.92983 0.479467,-0.65572 1.101291,-0.25909 1.306195,0.83313 0.173159,0.92302 0.217604,0.95701 1.025596,0.78433 1.071425,-0.22899 1.413486,-0.50833 1.617424,-1.32088 0.116086,-0.46252 0.344871,-0.65061 0.791401,-0.65061 0.846272,0 0.949309,0.38696 0.949309,3.56521 0,2.3093 -0.06815,2.75433 -0.443849,2.8985 -0.680802,0.26125 -1.110091,-0.38198 -1.179537,-1.76735 -0.05906,-1.1784 -0.108233,-1.25677 -0.788405,-1.25677 -0.943197,0 -1.492694,0.57427 -1.717021,1.79444 -0.09947,0.54103 -0.312505,1.07116 -0.473414,1.17807 -0.450178,0.2991 -0.959321,0.23836 -1.074899,-0.12824 z m 128.631333,0.1655 c -0.59909,-0.59909 0.28462,-2.5874 1.02389,-2.30372 0.29083,0.1116 0.38099,0.45881 0.32349,1.24569 -0.0632,0.86445 -0.19186,1.10702 -0.61978,1.16827 -0.29703,0.0425 -0.62445,-0.007 -0.7276,-0.11024 z m -105.215604,-1.2631 c -0.392324,-0.91525 -0.690935,-1.23872 -1.255337,-1.35982 -0.407307,-0.0874 -1.012465,-0.26899 -1.344795,-0.40356 -0.429048,-0.17373 -0.634174,-0.14924 -0.707506,0.0845 -0.0568,0.18102 -0.243364,0.78394 -0.414586,1.33983 -0.353266,1.14692 -0.910527,1.49291 -1.482794,0.92065 -0.343561,-0.34356 -0.309279,-0.71779 0.288113,-3.14504 0.728961,-2.96184 1.303612,-4.02661 2.248503,-4.16627 1.136634,-0.16801 2.847917,2.0021 3.980722,5.04802 0.684199,1.83969 0.623835,2.68082 -0.200797,2.79792 -0.487233,0.0692 -0.691216,-0.13565 -1.111523,-1.11619 z m -1.305422,-3.53201 c -0.140155,-0.25499 -0.412377,-0.67413 -0.604943,-0.93142 -0.32044,-0.42815 -0.373031,-0.39452 -0.620485,0.39687 -0.265938,0.85051 -0.25603,0.86577 0.604943,0.93142 0.763082,0.0582 0.842637,0.007 0.620485,-0.39687 z m 26.182636,4.20004 c -0.29776,-0.55636 -0.39669,-6.04256 -0.12189,-6.75869 0.0883,-0.23018 0.44325,-0.41851 0.78871,-0.41851 0.84036,0 0.94006,0.51383 0.84711,4.36562 -0.0732,3.0344 -0.1022,3.17864 -0.65404,3.2572 -0.36449,0.0519 -0.68158,-0.11243 -0.85989,-0.44562 z m 50.68978,0.10102 c -0.23007,-0.23007 -0.63084,-0.77939 -0.89061,-1.22071 -0.25976,-0.44132 -0.88901,-1.05578 -1.39833,-1.36547 -0.50932,-0.30969 -1.00866,-0.68464 -1.10963,-0.83322 -0.10098,-0.14858 -0.54249,0.52974 -0.98113,1.50739 -0.60038,1.33815 -0.92876,1.77754 -1.32845,1.77754 -0.81899,0 -1.17458,-0.89921 -0.71049,-1.79667 0.21135,-0.40871 0.64827,-1.57064 0.97094,-2.58207 0.86955,-2.72572 1.47176,-3.78829 2.25897,-3.98587 1.50119,-0.37677 3.19724,1.88804 4.13473,5.52129 0.44362,1.71925 0.52507,2.43106 0.31608,2.76238 -0.39927,0.63297 -0.77961,0.69788 -1.26208,0.21541 z m -1.50968,-4.8028 c -0.42572,-1.11972 -0.54498,-1.21221 -0.91338,-0.70838 -0.30367,0.4153 -0.25839,0.53484 0.35613,0.94013 0.8915,0.58798 0.87199,0.59609 0.55725,-0.23175 z m -57.629146,4.46989 c -0.19923,-0.37245 -0.44616,-5.53606 -0.32896,-6.87917 0.0454,-0.52011 1.03892,-0.38612 1.342456,0.18105 0.15064,0.28147 0.27389,0.87678 0.27389,1.32291 0,0.7918 0.03,0.81106 1.25677,0.80754 2.11254,-0.006 2.4474,-0.18357 2.4474,-1.29725 0,-1.05379 0.37393,-1.60956 1.08294,-1.60956 0.6327,0 0.76914,0.53423 0.76914,3.01143 0,1.25993 0.12538,2.29978 0.29813,2.47253 0.17136,0.17136 0.22369,0.59472 0.12307,0.99564 -0.14137,0.56326 -0.30821,0.68158 -0.86676,0.61469 -0.78387,-0.0939 -1.05032,-0.47532 -1.2592,-1.80262 l -0.14573,-0.92605 -1.52215,0.0938 c -0.83718,0.0516 -1.60962,0.23019 -1.71653,0.39688 -0.10692,0.16668 -0.19621,0.78527 -0.19844,1.37463 -0.006,1.53397 -0.982946,2.31488 -1.556026,1.24354 z m -5.54363,-0.33878 c -2.530163,-1.54258 -2.406703,-6.2323 0.18362,-6.97519 0.70872,-0.20326 0.94133,-0.14494 1.49443,0.37467 0.73659,0.69199 0.85152,1.61822 0.26155,2.10786 -0.48046,0.39874 -1.19399,0.1682 -1.19399,-0.38578 0,-0.65416 -0.51955,-0.46492 -0.80824,0.29439 -0.18122,0.47663 -0.17596,0.97234 0.0165,1.55551 0.5172,1.56712 1.71822,2.15677 2.99801,1.4719 0.62382,-0.33383 0.75618,-0.32231 1.23073,0.10716 0.67192,0.60807 0.66621,0.78247 -0.0473,1.44722 -0.7909,0.73684 -2.92852,0.73801 -4.13529,0.002 z m 19.868856,-0.0581 c -0.14086,-0.1819 -0.75924,-1.22369 -1.37417,-2.3151 -0.61494,-1.09141 -1.30807,-2.29313 -1.5403,-2.67049 -0.50155,-0.81498 -0.29269,-1.56284 0.43647,-1.56284 0.35872,0 0.93876,0.6344 1.8521,2.02563 0.73139,1.1141 1.36331,2.11523 1.40425,2.22473 0.0409,0.10949 0.31256,0.23975 0.6036,0.28946 0.54119,0.0924 0.92254,-0.77936 1.71353,-3.91731 0.30449,-1.20794 0.84687,-1.5962 1.42384,-1.01923 0.31974,0.31974 0.32247,0.61811 0.0187,2.03928 -0.77864,3.64244 -1.83871,5.62613 -2.64775,4.95469 -0.22636,-0.18786 -0.38233,-0.18647 -0.50034,0.004 -0.23566,0.3813 -1.07836,0.34899 -1.38989,-0.0533 z m 13.816,-0.57262 c -0.60242,-0.60243 -0.70336,-0.61971 -1.77391,-0.30374 -3.74714,1.10598 -3.98159,0.92017 -4.09709,-3.24719 -0.10341,-3.73099 -0.0994,-3.73727 2.75298,-4.28864 1.93654,-0.37433 2.5284,-0.22558 2.41034,0.6058 -0.0835,0.58784 -0.74909,0.89904 -2.95232,1.38031 -0.60688,0.13256 -0.692,0.23507 -0.44366,0.5343 0.16902,0.20365 0.62601,0.4071 1.01554,0.45212 1.05389,0.1218 0.9951,1.25341 -0.0855,1.64575 -0.62188,0.22578 -0.77472,0.42258 -0.70588,0.90887 0.0776,0.54831 0.18951,0.60161 0.95954,0.45715 0.47942,-0.0899 1.17389,-0.0486 1.54327,0.0918 0.51462,0.19566 0.70583,0.16611 0.81809,-0.12643 0.21148,-0.55111 0.89153,-0.46904 1.22144,0.1474 0.27087,0.50612 1.54353,0.74953 1.9249,0.36815 0.0886,-0.0886 -0.24878,-0.75676 -0.74965,-1.4849 -1.17225,-1.70415 -1.25469,-3.22957 -0.22991,-4.25434 1.12349,-1.1235 2.89158,-1.16234 3.61467,-0.0794 0.33815,0.50644 0.21825,1.93304 -0.19102,2.2727 -0.57214,0.47484 -1.19399,0.12654 -1.19399,-0.66876 0,-0.56231 -0.10887,-0.6727 -0.59531,-0.60361 -0.97028,0.1378 -0.9002,1.2307 0.16707,2.60553 1.35603,1.74679 1.45335,2.44774 0.4756,3.42548 -1.06537,1.06537 -2.90492,1.1419 -3.88519,0.16164 z m 22.09408,-0.41956 c -0.42062,-0.42062 -0.52917,-0.88195 -0.52917,-2.24896 0,-0.94589 -0.0747,-1.71979 -0.16597,-1.71979 -0.0913,0 -0.91289,0.3677 -1.82579,0.81713 -1.44166,0.70972 -1.74153,0.77407 -2.28143,0.48955 -0.34188,-0.18016 -0.70449,-0.45524 -0.80581,-0.61127 -0.11949,-0.18404 -0.22414,-0.14689 -0.2979,0.10575 -0.0625,0.2142 -0.27962,0.97326 -0.48242,1.6868 -0.43794,1.54089 -1.13211,2.12422 -1.66881,1.40234 -0.39175,-0.52691 -0.40334,-0.41475 0.39317,-3.80585 0.33468,-1.4249 0.7708,-2.61032 1.05495,-2.86747 0.80255,-0.7263 1.40645,-0.38837 1.88547,1.05509 0.23962,0.72205 0.54151,1.3481 0.67086,1.39122 0.12936,0.0431 0.81449,-0.30997 1.52253,-0.78464 2.30811,-1.54737 2.4423,-1.61488 2.87782,-1.44775 0.50503,0.19379 0.58842,0.55073 0.90933,3.89201 0.29853,3.10833 -0.0534,3.84925 -1.25683,2.64584 z m 22.0926,0.16247 c -1.24819,-0.54399 -1.53984,-1.05637 -1.34414,-2.36144 0.0945,-0.63 0.065,-1.43414 -0.0655,-1.78698 -0.13053,-0.35283 -0.14445,-0.93979 -0.0309,-1.30435 0.1135,-0.36456 0.27997,-0.9981 0.36995,-1.40787 0.33656,-1.53289 3.358,-1.85723 4.11553,-0.44179 0.32445,0.60624 0.33447,1.85417 0.0189,2.35264 -0.16761,0.26474 0.0244,0.61719 0.66551,1.22187 0.49558,0.46739 0.90105,1.08758 0.90105,1.37819 0,0.75858 -1.00366,1.92684 -2.0203,2.35161 -1.06783,0.44617 -1.5828,0.4458 -2.61001,-0.002 z m 2.26646,-1.75928 c 0.67804,-0.36288 0.64709,-0.70755 -0.0835,-0.9302 -0.32742,-0.0998 -0.82237,-0.37569 -1.09987,-0.61314 -0.47985,-0.41059 -0.49623,-0.39934 -0.33435,0.22973 0.0936,0.3638 0.17185,0.86982 0.17384,1.12448 0.004,0.51975 0.57581,0.60021 1.34392,0.18913 z m -0.9852,-3.43082 c 0.52271,-0.88489 0.40007,-1.32237 -0.37073,-1.32237 -0.42275,0 -0.51355,0.18711 -0.51355,1.05833 0,1.26304 0.25005,1.3377 0.88428,0.26404 z m -9.77379,4.92307 c -0.0779,-0.20303 -0.003,-0.8858 0.16751,-1.51727 0.27496,-1.02115 0.25656,-1.17784 -0.16641,-1.4168 -0.26156,-0.14776 -1.04757,-0.79097 -1.7467,-1.42935 -0.95223,-0.86949 -1.27114,-1.35074 -1.27114,-1.91823 0,-0.63683 0.10817,-0.75754 0.67885,-0.75754 0.95449,0 1.7024,0.45956 1.7024,1.04606 0,0.42823 1.75967,1.84473 1.94266,1.56381 0.0345,-0.053 0.29614,-0.55671 0.5814,-1.1194 0.28526,-0.56269 0.79368,-1.20614 1.12983,-1.42989 0.55422,-0.36891 0.65244,-0.36557 1.05385,0.0359 0.36568,0.36567 0.38449,0.52233 0.10818,0.90072 -0.72414,0.99167 -2.24181,4.45384 -2.36941,5.40519 -0.12107,0.90263 -0.21377,1.00599 -0.90215,1.00599 -0.42197,0 -0.83096,-0.16611 -0.90887,-0.36914 z m 15.52961,-0.76951 c -0.15956,-0.15956 -0.2901,-0.48174 -0.2901,-0.71598 0,-0.23423 -0.24882,-1.40984 -0.55294,-2.61246 -0.30412,-1.20263 -0.4838,-2.46209 -0.39929,-2.79881 0.38701,-1.54197 5.45015,-2.04884 5.45015,-0.54561 0,0.47891 -0.41735,0.72796 -1.57852,0.94198 l -0.93502,0.17235 0.7019,0.28956 c 0.38604,0.15926 0.78325,0.42118 0.88267,0.58206 0.30697,0.49668 -0.41356,1.06306 -1.35239,1.06306 -0.75104,0 -0.89364,0.0952 -0.89364,0.59687 0,0.76955 1.29419,1.3875 2.90589,1.3875 0.92375,0 1.20624,0.10353 1.27713,0.46802 0.063,0.32411 -0.17963,0.57802 -0.78922,0.82577 -1.20615,0.4902 -4.0593,0.71301 -4.42662,0.34569 z m 9.28782,-1.29552 c -0.17463,-0.17462 -0.3175,-0.42373 -0.3175,-0.55358 0,-0.12984 -0.23813,-0.5388 -0.52917,-0.9088 -0.79927,-1.01611 -0.65506,-1.50502 0.80434,-2.7269 0.73343,-0.61406 1.26994,-1.18005 1.19225,-1.25774 -0.0777,-0.0777 -0.35973,0.0564 -0.62674,0.29809 -0.96551,0.87377 -1.81459,0.35915 -1.30055,-0.78825 0.29115,-0.64988 1.24839,-1.15365 2.19211,-1.15365 0.65529,0 1.70734,0.82327 1.70734,1.33606 0,0.61245 -0.81438,1.79187 -1.70783,2.47333 -0.89089,0.67952 -0.92223,0.75389 -0.54476,1.2928 0.22028,0.31449 0.40051,0.81915 0.40051,1.12147 0,0.51903 -0.446,1.18467 -0.79375,1.18467 -0.0873,0 -0.30163,-0.14287 -0.47625,-0.3175 z M 74.414687,147.53545 c -0.0885,-0.25467 -0.662072,-0.70885 -1.274601,-1.00931 -1.440265,-0.70649 -2.467226,-2.68076 -2.830309,-5.44112 -0.141081,-1.07255 -0.31928,-2.40782 -0.395999,-2.96727 -0.07672,-0.55945 -0.315963,-3.47648 -0.531646,-6.48229 -0.215683,-3.00582 -0.569836,-6.77481 -0.787005,-8.37554 -0.21717,-1.60072 -0.39718,-3.96332 -0.400021,-5.25021 l -0.0052,-2.33979 -2.579687,0.18501 c -1.418828,0.10176 -3.161485,0.29147 -3.872572,0.42157 -2.920102,0.53427 -7.830298,0.0945 -8.704381,-0.77958 -1.247992,-1.24799 -1.035976,-3.57658 0.726538,-7.9797 1.771706,-4.42609 2.401639,-5.42424 5.77532,-9.151211 1.776952,-1.96304 3.91461,-4.38625 4.750347,-5.3849 2.528829,-3.02179 3.987199,-4.17885 6.06094,-4.80873 3.062946,-0.93034 5.354719,-0.20693 6.330127,1.99814 0.429789,0.97161 0.508846,1.73327 0.486735,4.6893 -0.01453,1.9411 0.06125,5.234071 0.168381,7.317711 l 0.194778,3.78844 3.335383,-0.21656 c 1.834459,-0.11911 4.897379,-0.2043 6.806485,-0.18931 l 3.471111,0.0273 -0.428403,-0.75319 c -0.506885,-0.89125 -0.730003,-0.94423 -0.957526,-0.22737 -0.356558,1.12341 -1.719792,0.43467 -1.719792,-0.86889 0,-0.68115 3.158251,-9.156081 4.162471,-11.169651 0.901193,-1.80702 2.950283,-3.35281 3.661743,-2.76235 0.20783,0.17248 0.37787,0.58551 0.37787,0.91784 0,0.52977 0.17118,0.62631 1.38906,0.78345 4.444376,0.57342 7.429166,1.81493 10.224516,4.25284 0.91972,0.80212 2.28455,1.85344 3.03296,2.33627 1.61031,1.03889 4.04111,3.539491 5.168,5.316421 0.44226,0.69737 1.11235,2.19352 1.48909,3.32478 0.37675,1.13126 0.86766,2.12693 1.09092,2.2126 0.31987,0.12275 0.36657,0.39405 0.22026,1.27967 -0.10213,0.61814 -0.12149,1.06339 -0.043,0.98944 0.0785,-0.0739 0.75845,-1.6813 1.51111,-3.57188 0.75267,-1.89058 1.61592,-3.85413 1.91834,-4.36346 0.67203,-1.13179 2.7608,-3.609891 5.60058,-6.644501 1.17292,-1.25338 3.14328,-3.38602 4.3786,-4.73919 2.31161,-2.53217 3.25604,-3.15177 5.60732,-3.6787 1.35489,-0.30364 3.03813,0.10855 4.00071,0.97967 1.18418,1.07167 1.35017,1.83549 1.3756,6.32996 0.0216,3.82511 -0.034,4.39987 -0.51729,5.347271 -0.29784,0.58382 -0.61347,1.03647 -0.70139,1.00589 -0.2715,-0.0944 -1.45772,1.47015 -2.06413,2.72252 l -0.57651,1.19062 0.68716,-0.79374 c 0.37794,-0.43657 0.93316,-1.26373 1.23381,-1.83813 l 0.54666,-1.04438 1.02633,1.10028 c 0.76819,0.82354 1.02633,1.32286 1.02633,1.98527 v 0.88499 l 7.91604,-0.0148 7.91604,-0.0148 0.68292,0.64143 c 0.65126,0.61171 0.68273,0.77111 0.67901,3.43958 -0.002,1.7199 -0.13261,3.05304 -0.33791,3.45961 -0.68632,1.35912 -3.16403,1.92886 -10.89853,2.50607 -1.30724,0.0976 -2.52859,0.30335 -2.71411,0.45732 -0.18553,0.15397 -0.86264,0.22073 -1.50471,0.14837 l -1.1674,-0.13159 0.071,3.86773 c 0.0397,2.16298 0.32195,5.60053 0.64036,7.79911 0.79482,5.48802 0.81684,13.50172 0.0431,15.70299 -0.54785,1.55873 -1.67016,2.98749 -2.34672,2.98749 -0.21597,0 -0.60136,0.18885 -0.85642,0.41967 -0.42593,0.38547 -0.53546,0.36977 -1.34375,-0.19259 -1.66953,-1.16157 -2.66009,-2.21508 -3.15923,-3.35998 -0.56743,-1.30155 -1.18479,-6.09178 -1.57399,-12.21293 -0.14342,-2.25557 -0.49598,-5.77764 -0.78346,-7.82681 -0.28749,-2.04917 -0.52271,-4.63249 -0.52271,-5.74072 v -2.01495 l -4.69635,0.17186 c -7.49955,0.27444 -7.37687,0.2845 -8.34627,-0.6849 -0.46081,-0.4608 -0.69129,-0.83782 -0.51218,-0.83782 0.49264,0 0.39056,-0.76004 -0.20353,-1.5153 l -0.52917,-0.67273 v 0.88 c 0,0.83057 -0.0218,0.85116 -0.38846,0.36641 -0.60655,-0.80192 -0.47671,-0.0797 0.41575,2.31263 0.68873,1.84624 1.25346,4.90811 1.30871,7.09566 0.0296,1.17348 -0.94245,5.90042 -1.49109,7.2507 -1.69926,4.18203 -5.69983,8.75192 -8.64837,9.8791 -5.6745,2.16927 -11.771006,0.91768 -15.889556,-3.26209 -3.358143,-3.40804 -5.841587,-9.9371 -6.381877,-16.77813 -0.171384,-2.17004 0.03937,-2.79747 0.866973,-2.58105 0.35356,0.0925 0.741349,-0.0759 1.131531,-0.49122 0.3265,-0.34754 0.86351,-0.63189 1.19336,-0.63189 0.329843,0 0.673313,-0.11907 0.763243,-0.26459 0.24603,-0.39807 1.08152,-0.31798 1.46171,0.14013 0.25683,0.30946 0.26579,0.55855 0.0381,1.05833 -0.26209,0.57522 -0.23501,0.65363 0.22569,0.65363 0.28792,0 0.52349,0.1389 0.52349,0.30868 0,0.16977 0.0593,0.24942 0.13169,0.17699 0.0724,-0.0724 0.25092,-2.26516 0.39666,-4.87274 0.14574,-2.60758 0.34085,-5.48197 0.43358,-6.38753 0.16344,-1.59609 0.14756,-1.65447 -0.51906,-1.90792 -0.46035,-0.17502 -0.94969,-0.1701 -1.48039,0.0149 l -0.79273,0.27635 0.71669,0.61804 0.71669,0.61805 -0.0832,3.26248 c -0.0972,3.81356 -0.28004,4.23362 -2.08962,4.80141 -1.700883,0.53368 -8.242579,1.26031 -11.899499,1.32176 l -2.959793,0.0497 0.137994,2.64583 c 0.0759,1.45521 0.44514,4.78896 0.820544,7.40834 0.581089,4.05455 0.677953,5.62369 0.651627,10.55593 -0.04015,7.52113 -0.395103,8.62659 -3.343352,10.4123 -1.181968,0.7159 -1.650812,0.74915 -1.865188,0.13229 z m 65.525833,-3.03389 c -0.18985,-0.18986 -0.31308,-0.20548 -0.31308,-0.0397 0,0.35316 0.31289,0.66606 0.48947,0.48948 0.0752,-0.0752 -0.004,-0.27759 -0.17639,-0.44979 z m -66.410407,-0.26459 c -0.189854,-0.18985 -0.313089,-0.20547 -0.313089,-0.0397 0,0.15037 0.07937,0.35277 0.17639,0.44979 0.09701,0.097 0.237903,0.11487 0.313089,0.0397 0.07519,-0.0752 -0.0042,-0.27759 -0.17639,-0.44979 z m 65.205667,-4.30782 c -0.0448,-1.89697 -0.43126,-1.89739 -0.43126,-4.7e-4 0,0.80036 0.10477,1.4552 0.23282,1.4552 0.12805,0 0.21735,-0.65463 0.19844,-1.45473 z m -66.410412,-0.26458 c -0.04484,-1.89697 -0.431261,-1.8974 -0.431261,-4.8e-4 0,0.80037 0.10477,1.45521 0.232823,1.45521 0.128053,0 0.21735,-0.65463 0.198438,-1.45473 z m 71.799982,-0.54526 c 0,-0.22687 -0.121,-0.3377 -0.2689,-0.2463 -0.14789,0.0914 -0.2004,0.27702 -0.11667,0.41249 0.22681,0.36699 0.38557,0.29856 0.38557,-0.16619 z m -66.41041,-0.26458 c 0,-0.22687 -0.121004,-0.33771 -0.268898,-0.2463 -0.147894,0.0914 -0.200401,0.27702 -0.116676,0.41249 0.226809,0.36698 0.385574,0.29855 0.385574,-0.16619 z m 24.69215,-0.29077 c 0.35438,-0.35439 -0.41398,-0.87839 -1.05288,-0.71803 -0.69385,0.17414 -1.678856,-0.49371 -1.678856,-1.1383 0,-0.23936 -0.20049,-0.31377 -0.59531,-0.22095 -0.81615,0.19189 -1.27791,-0.17134 -1.48163,-1.1655 -0.16277,-0.79436 -0.20043,-0.81738 -0.70118,-0.42858 -0.51624,0.40083 -0.50009,0.43757 0.66146,1.50459 1.6608,1.52564 4.306946,2.70821 4.848396,2.16677 z m 7.99837,-1.87643 1.5343,-1.78594 -1.63428,1.57922 c -1.42243,1.37449 -1.89841,1.99266 -1.53431,1.99266 0.055,0 0.79042,-0.80368 1.63429,-1.78594 z m -4.08177,0.79375 c 0.3291,-0.41965 0.31975,-0.429 -0.0999,-0.0999 -0.25466,0.19972 -0.46302,0.40808 -0.46302,0.46302 0,0.21777 0.21727,0.0776 0.56292,-0.36312 z m 4.05216,-3.47837 c 0.8648,-0.88056 1.48714,-1.68625 1.38298,-1.79042 -0.10417,-0.10416 -0.38105,0.10109 -0.61529,0.45611 -0.23424,0.35502 -1.33283,1.53442 -2.44131,2.62089 -1.10848,1.08648 -1.53917,1.60169 -0.95708,1.14492 0.58208,-0.45676 1.7659,-1.55094 2.6307,-2.4315 z m -6.33487,2.61847 c 0.0899,-0.14552 0.0374,-0.26458 -0.11668,-0.26458 -0.15411,0 -0.2802,0.11906 -0.2802,0.26458 0,0.14552 0.0525,0.26459 0.11668,0.26459 0.0642,0 0.19026,-0.11907 0.2802,-0.26459 z m 34.13125,-0.79375 c 0.0899,-0.14552 0.0374,-0.26458 -0.11668,-0.26458 -0.15411,0 -0.2802,0.11906 -0.2802,0.26458 0,0.14552 0.0525,0.26459 0.11668,0.26459 0.0642,0 0.19026,-0.11907 0.2802,-0.26459 z m -66.410414,-0.26458 c 0.08994,-0.14552 0.03743,-0.26458 -0.116676,-0.26458 -0.154109,0 -0.280199,0.11906 -0.280199,0.26458 0,0.14552 0.0525,0.26458 0.116676,0.26458 0.06417,0 0.190262,-0.11906 0.280199,-0.26458 z m 72.628124,-1.20624 c 0,-0.22687 -0.11907,-0.33891 -0.26459,-0.24897 -0.14552,0.0899 -0.26458,0.27556 -0.26458,0.41249 0,0.13693 0.11906,0.24897 0.26458,0.24897 0.14552,0 0.26459,-0.18562 0.26459,-0.41249 z m -66.410416,-0.26458 c 0,-0.22687 -0.119063,-0.33891 -0.264584,-0.24897 -0.14552,0.0899 -0.264583,0.27556 -0.264583,0.41249 0,0.13693 0.119063,0.24897 0.264583,0.24897 0.145521,0 0.264584,-0.18562 0.264584,-0.41249 z m 22.896126,-0.92025 c 1.07546,-1.09188 1.24102,-1.37805 0.9161,-1.58345 -0.62645,-0.39601 -1.01584,-0.30471 -1.43526,0.3365 -0.592026,0.90512 -1.244716,2.57969 -1.005466,2.57969 0.11656,0 0.802646,-0.59973 1.524626,-1.33274 z m -1.729456,-2.82451 c 0,-0.58487 -0.35853,-0.34649 -1.52136,1.01151 -1.54667,1.80629 -1.41605,2.22241 0.19844,0.6322 0.7276,-0.71667 1.32292,-1.45633 1.32292,-1.64371 z m -4.23334,1.43187 c 0,-1.11397 -0.5284,-2.23979 -1.12439,-2.39564 -0.25471,-0.0666 -0.46311,-0.31085 -0.46311,-0.54275 0,-0.23191 -0.11906,-0.42165 -0.26458,-0.42165 -0.14552,0 -0.26458,0.11801 -0.26458,0.26225 0,0.48652 1.65626,3.97108 1.88751,3.97108 0.12603,0 0.22915,-0.39298 0.22915,-0.87329 z m 9.392706,0.60871 c 0.0899,-0.14552 0.0445,-0.26458 -0.10106,-0.26458 -0.14552,0 -0.33817,0.11906 -0.4281,0.26458 -0.0899,0.14552 -0.0445,0.26458 0.10106,0.26458 0.14552,0 0.33817,-0.11906 0.4281,-0.26458 z m 13.23978,-1.34386 c 0.96129,-1.89702 0.66282,-2.22093 -0.48117,-0.5222 -0.89904,1.335 -1.02549,1.86606 -0.44433,1.86606 0.13449,0 0.55096,-0.60474 0.9255,-1.34386 z m 26.58001,0.15324 c 0,-0.36381 -0.10914,-0.66146 -0.24253,-0.66146 -0.30991,0 -0.50946,0.56304 -0.35164,0.99218 0.2106,0.57269 0.59417,0.35919 0.59417,-0.33072 z m -66.41041,-0.26459 c 0,-0.3638 -0.10914,-0.66146 -0.242535,-0.66146 -0.309907,0 -0.509455,0.56305 -0.351639,0.99219 0.210603,0.57269 0.594174,0.35919 0.594174,-0.33073 z m 28.88214,-1.53251 c 2.42817,-1.85203 3.0141,-3.78713 2.79858,-9.2426 -0.2956,-7.48265 -1.77273,-10.8172 -6.09069,-13.74947 -1.92856,-1.30966 -4.296306,-1.90126 -4.808106,-1.20134 -0.37623,0.51453 -0.94192,7.52603 -1.00824,12.49675 -0.0661,4.95347 1.01782,9.04989 2.925206,11.05528 0.76942,0.80895 2.55736,1.46532 4.0696,1.49401 0.7094,0.0135 1.27984,-0.21666 2.11365,-0.85263 z m 4.36632,-1.13063 c 0.0801,-0.20876 0.0643,-0.58793 -0.0352,-0.84259 -0.14575,-0.37323 -0.27951,-0.26146 -0.68977,0.57641 -0.27993,0.57169 -0.50896,1.0819 -0.50896,1.13379 0,0.24397 1.10566,-0.53349 1.23388,-0.86761 z m 32.79955,0.0834 c -0.0877,-0.32742 -0.16299,-0.83343 -0.1672,-1.12447 -0.006,-0.4389 -0.0514,-0.46146 -0.26415,-0.1323 -0.42705,0.66081 -0.32211,1.85209 0.16315,1.85209 0.31446,0 0.38549,-0.15766 0.2682,-0.59532 z m -66.410412,-0.26458 c -0.08775,-0.32742 -0.162989,-0.83344 -0.167203,-1.12448 -0.0063,-0.43889 -0.05142,-0.46146 -0.264144,-0.13229 -0.427049,0.66081 -0.322109,1.85208 0.16315,1.85208 0.314457,0 0.385484,-0.15765 0.268197,-0.59531 z m 18.627416,-3.29448 c 0.47865,0.12517 0.54606,0.0575 0.42656,-0.42817 -0.0781,-0.31725 -0.29082,-1.61516 -0.47281,-2.88424 l -0.33088,-2.30742 -0.89539,1.24908 c -0.49247,0.687 -1.07958,1.60627 -1.30469,2.04284 l -0.40929,0.79375 0.64602,-0.59532 c 0.73135,-0.67393 1.48583,-0.77445 1.69629,-0.22601 0.0779,0.20312 -0.23684,1.12585 -0.69952,2.05052 l -0.84124,1.68122 0.80823,-0.76246 c 0.56505,-0.53305 0.97927,-0.71773 1.37672,-0.61379 z m 41.262176,-2.0128 c 0.002,-0.11773 -0.11501,-0.14047 -0.26053,-0.0505 -0.14552,0.0899 -0.26276,0.36485 -0.26053,0.61093 0.003,0.38557 0.0395,0.39255 0.26053,0.0505 0.14107,-0.21828 0.25831,-0.4932 0.26053,-0.61093 z M 70.831723,122.5167 c 0.0022,-0.11772 -0.115011,-0.14046 -0.260532,-0.0505 -0.145521,0.0899 -0.26276,0.36486 -0.260533,0.61093 0.0035,0.38557 0.0395,0.39256 0.260533,0.0505 0.141065,-0.21828 0.258305,-0.4932 0.260532,-0.61093 z m 48.304007,-0.042 c 0.44022,-1.0536 0.46168,-1.19912 0.1768,-1.19912 -0.11362,0 -0.37231,0.38695 -0.57486,0.8599 -0.20255,0.47294 -0.41717,0.94919 -0.47693,1.05833 -0.0598,0.10914 0.0264,0.19844 0.19148,0.19844 0.16507,0 0.47265,-0.4129 0.68351,-0.91755 z m -6.75299,-0.69627 c 0.15661,-0.28423 0.0569,-0.7521 -0.30367,-1.42486 -0.51051,-0.9525 -0.51993,-1.3345 -0.0702,-2.8483 0.1015,-0.34163 -0.0139,-0.46302 -0.44029,-0.46302 -0.47015,0 -0.54812,0.11097 -0.41832,0.59531 0.0877,0.32742 0.16495,1.72641 0.17156,3.10885 0.0125,2.61999 0.1254,2.72978 1.06092,1.03202 z m 30.4197,-1.84138 c 0,-1.16573 -0.36352,-1.2096 -0.6475,-0.0781 -0.14909,0.59404 0.11703,1.11959 0.58135,1.14803 0.0364,0.002 0.0661,-0.47923 0.0661,-1.0699 z m -66.410416,-0.26459 c 0,-1.16573 -0.363511,-1.20959 -0.647491,-0.0781 -0.149095,0.59405 0.11703,1.11959 0.581345,1.14803 0.03638,0.002 0.06615,-0.47922 0.06615,-1.0699 z m 14.973477,-0.80117 c -0.71994,-0.20198 -0.71826,-0.20452 -0.519907,0.78724 l 0.169747,0.84873 0.45192,-0.74032 c 0.43695,-0.7158 0.43358,-0.74546 -0.10176,-0.89565 z m 27.811409,-0.62077 -0.34884,-1.00758 -0.46238,0.70568 c -0.44967,0.6863 -0.44563,0.71937 0.14708,1.20379 0.82375,0.67325 1.08612,0.31696 0.66414,-0.90189 z m 17.19168,0.32962 c -0.0845,-0.21107 -0.14715,-0.14838 -0.15985,0.15985 -0.0115,0.27891 0.0511,0.43519 0.13897,0.34727 0.0879,-0.0879 0.0973,-0.31613 0.0209,-0.50712 z m -66.41041,-0.26459 c -0.08446,-0.21106 -0.147156,-0.14837 -0.15985,0.15986 -0.01148,0.27891 0.05105,0.43518 0.138964,0.34726 0.08792,-0.0879 0.09732,-0.31612 0.02088,-0.50712 z m 74.64342,-2.91372 c 0.17463,-0.17462 0.3175,-0.61379 0.3175,-0.97593 v -0.65843 l -0.52916,0.56799 c -0.82418,0.88465 -0.62253,1.90056 0.21166,1.06637 z m -66.41041,-0.26458 c 0.174625,-0.17463 0.3175,-0.6138 0.3175,-0.97594 v -0.65843 l -0.529166,0.568 c -0.824177,0.88465 -0.622528,1.90056 0.211666,1.06637 z m 47.8102,-0.19995 c 0.48326,-0.19696 0.46409,-0.23276 -0.22083,-0.41258 -0.54137,-0.14214 -0.86993,-0.077 -1.18117,0.23426 -0.39852,0.39852 -0.38179,0.42978 0.22083,0.41259 0.3586,-0.0102 0.89013,-0.11565 1.18117,-0.23427 z m -66.410407,-0.26461 c 0.483251,-0.19696 0.46409,-0.23276 -0.220832,-0.41259 -0.541369,-0.14213 -0.869936,-0.077 -1.181174,0.23427 -0.398515,0.39852 -0.381788,0.42977 0.220829,0.41258 0.358606,-0.0102 0.890135,-0.11564 1.181177,-0.23426 z m 68.919907,0.0544 c -0.0131,-0.64416 -0.44168,-0.7496 -1.18658,-0.29198 l -0.79375,0.48763 0.99219,10e-4 c 0.5457,7.9e-4 0.99036,-0.0879 0.98814,-0.19705 z m 19.70133,-0.0403 c 0.49404,-0.19334 0.49175,-0.20762 -0.0564,-0.35097 -0.33118,-0.0866 -0.70037,0.006 -0.87813,0.22013 -0.35081,0.4227 0.0466,0.47833 0.93454,0.13084 z M 62.100474,114.4625 c -0.01315,-0.64416 -0.441674,-0.7496 -1.186574,-0.29198 l -0.79375,0.48763 0.992187,10e-4 c 0.545703,7.9e-4 0.990365,-0.0879 0.988137,-0.19705 z m 19.70134,-0.0403 c 0.494037,-0.19333 0.491741,-0.20762 -0.05642,-0.35097 -0.331176,-0.0866 -0.700365,0.006 -0.878125,0.22014 -0.350809,0.42269 0.04656,0.47832 0.934543,0.13083 z m 50.716036,-0.32958 c -0.6135,-0.22695 -1.0925,-0.10703 -1.0925,0.27351 0,0.11173 0.38356,0.14686 0.85235,0.0781 0.8065,-0.11836 0.81942,-0.13727 0.24015,-0.35156 z m -77.557075,-0.11753 c 0,-0.2317 -0.238125,-0.72401 -0.529167,-1.09401 l -0.529166,-0.67273 v 0.91763 c 0,0.50469 0.07937,0.997 0.176389,1.09401 0.330632,0.33064 0.881944,0.17755 0.881944,-0.2449 z m 11.14666,-0.14702 c -0.613498,-0.22695 -1.092494,-0.10702 -1.092494,0.27352 0,0.11173 0.383556,0.14685 0.852345,0.078 0.806503,-0.11837 0.81942,-0.13728 0.240149,-0.35156 z m 51.295005,-0.49933 c 0,-0.37588 -0.12665,-0.31825 -0.6866,0.31239 -0.50133,0.56463 -0.50084,0.56599 0.0913,0.25528 0.32743,-0.17182 0.59532,-0.42727 0.59532,-0.56767 z m 40.74583,0.27389 c 0,-0.14552 -0.0525,-0.26458 -0.11668,-0.26458 -0.0642,0 -0.19026,0.11906 -0.2802,0.26458 -0.0899,0.14552 -0.0374,0.26459 0.11668,0.26459 0.15411,0 0.2802,-0.11907 0.2802,-0.26459 z m -66.410419,-0.26458 c 0,-0.14552 -0.0525,-0.26458 -0.11667,-0.26458 -0.0642,0 -0.19026,0.11906 -0.2802,0.26458 -0.0899,0.14552 -0.0374,0.26458 0.11668,0.26458 0.1541,0 0.28019,-0.11906 0.28019,-0.26458 z m 18.774399,-0.9106 c -0.13946,-0.13946 -0.25356,-0.58694 -0.25356,-0.9944 0,-0.40746 -0.13295,-0.74083 -0.29544,-0.74083 -0.18023,0 -0.22934,0.23216 -0.12593,0.59531 0.0932,0.32742 0.24299,0.93234 0.33279,1.34426 0.11533,0.52907 0.22674,0.64623 0.37948,0.39908 0.11893,-0.19242 0.10212,-0.46396 -0.0373,-0.60342 z m 2.65685,-0.0154 c 0.34178,-0.3638 0.56188,-0.66146 0.48912,-0.66146 -0.0728,0 -0.41192,0.29766 -0.7537,0.66146 -0.34178,0.3638 -0.56188,0.66146 -0.48912,0.66146 0.0728,0 0.41193,-0.29766 0.7537,-0.66146 z m 41.55431,-3.37344 c 0.74511,-1.44102 0.7585,-1.52135 0.25367,-1.52135 -0.34891,0 -0.53298,0.17518 -0.53298,0.50723 0,0.27898 -0.23812,1.06275 -0.52917,1.74173 -0.9729,2.26969 -0.5398,1.87991 0.80848,-0.72761 z m -66.410415,-0.26462 c 0.745109,-1.44103 0.758505,-1.52136 0.253672,-1.52136 -0.348906,0 -0.532977,0.17518 -0.532977,0.50723 0,0.27898 -0.238125,1.06276 -0.529167,1.74173 -0.972907,2.2697 -0.5398,1.87991 0.808472,-0.7276 z m 62.983315,-0.89268 c 0.23268,-0.28037 0.21465,-0.36409 -0.0784,-0.36409 -0.21167,0 -0.6664,0.67186 -1.02458,1.5138 -0.91592,2.15299 -0.9168,2.23972 -0.006,0.63623 0.44398,-0.78202 0.94322,-1.58569 1.10941,-1.78594 z m -66.410413,-0.26459 c 0.232685,-0.28036 0.214654,-0.36409 -0.07841,-0.36409 -0.211672,0 -0.666406,0.67186 -1.024586,1.5138 -0.915921,2.15299 -0.916797,2.23973 -0.0064,0.63623 0.443987,-0.78201 0.943224,-1.58569 1.109416,-1.78594 z m 63.446763,1.41643 c 0.29501,-0.68824 0.4404,-1.25135 0.32309,-1.25135 -0.11732,0 -0.35895,0.44648 -0.53696,0.99219 -0.17801,0.5457 -0.39175,1.17078 -0.47498,1.38906 -0.34812,0.91302 0.19507,0.022 0.68885,-1.1299 z m 10.53524,-0.35815 0.58734,-0.8932 h -0.95047 c -0.80889,0 -0.90208,0.0583 -0.62567,0.39135 0.24608,0.29651 0.25393,0.5946 0.0324,1.2301 -0.36945,1.05982 -0.35015,1.29651 0.0539,0.66081 0.17334,-0.27272 0.57947,-0.8978 0.90251,-1.38906 z m -76.945656,0.0936 c 0.295016,-0.68824 0.440407,-1.25135 0.323091,-1.25135 -0.117317,0 -0.358945,0.44649 -0.536956,0.99219 -0.178009,0.5457 -0.39175,1.17078 -0.474978,1.38906 -0.34812,0.91302 0.195064,0.022 0.688843,-1.1299 z m 10.535237,-0.35815 0.587343,-0.8932 h -0.950463 c -0.80889,0 -0.90209,0.0583 -0.62568,0.39135 0.24609,0.29652 0.25394,0.5946 0.0324,1.23011 -0.36945,1.05981 -0.35015,1.2965 0.0539,0.66081 0.17334,-0.27273 0.57947,-0.89781 0.9025,-1.38907 z m 23.089879,-1.02189 c 0.18864,-0.22729 0.29516,-0.46109 0.2367,-0.51954 -0.0584,-0.0584 -0.7005,0.50052 -1.42677,1.24218 -1.28052,1.30766 -1.28768,1.32338 -0.23669,0.51955 0.59608,-0.45591 1.23812,-1.01489 1.42676,-1.24219 z m 13.65255,0.63756 c -0.37673,-0.44773 -0.68497,-0.91013 -0.68497,-1.02757 0,-0.49527 -1.63597,-0.0582 -2.0469,0.54691 l -0.43007,0.63325 0.57025,-0.49789 c 0.53605,-0.46805 0.6103,-0.47164 1.23848,-0.06 0.36753,0.24081 0.66824,0.61369 0.66824,0.82862 0,0.24402 0.25725,0.39078 0.68497,0.39078 h 0.68498 z m -66.410408,-0.26458 c -0.376738,-0.44773 -0.684977,-0.91013 -0.684977,-1.02757 0,-0.49527 -1.635967,-0.0582 -2.046896,0.54692 l -0.43007,0.63324 0.570246,-0.49789 c 0.536056,-0.46804 0.610306,-0.47164 1.238483,-0.06 0.36753,0.24081 0.668237,0.61369 0.668237,0.82862 0,0.24402 0.257249,0.39078 0.684977,0.39078 h 0.684979 z m 50.107378,-0.54425 c 1.41333,-1.13889 1.7626,-1.31024 2.16208,-1.06076 0.43449,0.27134 0.4525,0.23367 0.20455,-0.42763 -0.40842,-1.08931 -1.66294,-2.81335 -1.78365,-2.45121 -0.0581,0.17441 0.0268,0.44957 0.18864,0.61147 0.56248,0.56247 0.28675,1.25647 -1.04762,2.63679 -1.75847,1.81903 -1.94454,2.04964 -1.65373,2.04964 0.13425,0 1.00262,-0.61124 1.92973,-1.3583 z m 32.1179,0.96143 c 0.10545,-0.27481 -0.0179,-0.39688 -0.40096,-0.39688 -0.46179,0 -0.49881,0.0656 -0.22388,0.39687 0.18115,0.21829 0.36159,0.39688 0.40096,0.39688 0.0394,0 0.14012,-0.17859 0.22388,-0.39687 z m -66.410408,-0.26463 c 0.105449,-0.2748 -0.01789,-0.39687 -0.400966,-0.39687 -0.461788,0 -0.498803,0.0656 -0.223882,0.39687 0.181157,0.21828 0.36159,0.39688 0.400965,0.39688 0.03937,0 0.140118,-0.1786 0.223883,-0.39688 z m 54.842588,-1.00944 c 0.0257,-0.0269 -0.0174,-0.84273 -0.0958,-1.81299 -0.12171,-1.50521 -0.22402,-1.78537 -0.69719,-1.90911 -0.75772,-0.19814 -2.85902,2.09647 -2.63688,2.87946 0.30467,1.07389 0.65093,1.25397 2.05347,1.06791 0.73127,-0.097 1.35067,-0.19837 1.37642,-0.22527 z m -66.410412,-0.26458 c 0.02574,-0.0269 -0.01736,-0.84274 -0.09582,-1.81299 -0.121713,-1.50521 -0.224025,-1.78537 -0.697195,-1.90911 -0.757714,-0.19815 -2.859011,2.09646 -2.636872,2.87945 0.304668,1.0739 0.650931,1.25397 2.053463,1.06792 0.731276,-0.097 1.350669,-0.19838 1.376424,-0.22527 z m 39.782552,-0.18119 c 0,-0.14552 -0.12609,-0.26458 -0.2802,-0.26458 -0.1541,0 -0.20661,0.11906 -0.11667,0.26458 0.0899,0.14552 0.21603,0.26459 0.2802,0.26459 0.0642,0 0.11667,-0.11907 0.11667,-0.26459 z m 19.57917,-1.16898 c 0,-0.20638 0.0692,-0.59334 0.15389,-0.8599 0.14082,-0.4435 0.11835,-0.44104 -0.26458,0.0289 -0.47206,0.57936 -0.55204,1.2062 -0.15389,1.2062 0.14552,0 0.26458,-0.16885 0.26458,-0.37523 z m -66.410412,-0.26459 c 0,-0.20638 0.06925,-0.59333 0.153892,-0.85989 0.140819,-0.4435 0.118351,-0.44105 -0.264583,0.0289 -0.472059,0.57935 -0.552035,1.2062 -0.153892,1.2062 0.145521,0 0.264583,-0.16886 0.264583,-0.37524 z m 14.955376,-2.23777 c 0.360273,-0.6368 0.654447,-1.23211 0.653725,-1.32292 -0.003,-0.37452 -1.38017,1.51665 -1.999176,2.7453 l -0.666501,1.32292 0.678458,-0.79375 c 0.373152,-0.43656 0.973225,-1.31476 1.333494,-1.95155 z m 37.402236,-0.98073 c 0.0417,-0.40002 -2.03505,-2.025711 -2.34393,-1.834811 -0.28603,0.176771 0.46183,1.014091 1.13725,1.273271 0.7496,0.28765 0.49761,1.03662 -0.81396,2.41934 l -1.25677,1.32494 1.62377,-1.44815 c 0.89307,-0.79648 1.63721,-1.57704 1.65364,-1.73459 z m -8.30449,2.53541 c 0.0899,-0.14552 -0.0291,-0.26459 -0.26458,-0.26459 -0.23546,0 -0.35452,0.11907 -0.26459,0.26459 0.0899,0.14552 0.209,0.26458 0.26459,0.26458 0.0556,0 0.17464,-0.11906 0.26458,-0.26458 z M 93.771154,104.0608 c 0.40966,-0.15478 1.07658,-0.59792 1.48206,-0.98476 0.57692,-0.55041 0.83276,-0.64309 1.17655,-0.42623 0.36016,0.22718 0.52188,0.11517 0.89752,-0.62163 0.42897,-0.84138 0.42986,-0.92709 0.0141,-1.34288 -0.40372,-0.40372 -0.81697,-0.45102 -2.89153,-0.33097 -0.1819,0.0105 -0.33073,0.15465 -0.33073,0.32028 0,0.16562 -0.47625,0.81781 -1.05833,1.4493 -1.648123,1.788 -1.313113,2.70142 0.71038,1.93689 z m 7.491696,-0.98349 c 0,-0.31247 -1.375266,-0.74173 -2.050516,-0.64003 -0.82613,0.12442 -0.74567,0.52409 0.13229,0.6571 1.309716,0.1984 1.918226,0.19299 1.918226,-0.0171 z m 31.34677,-2.43926 c 0.1261,0 0.41724,0.16451 0.64698,0.36558 0.87655,0.76715 1.47358,0.74241 1.78168,-0.0738 0.39386,-1.043441 0.0818,-1.476801 -0.87255,-1.211641 -0.4158,0.11553 -0.88145,0.22094 -1.03478,0.23425 -0.35583,0.0309 -1.78991,1.230381 -2.08886,1.747171 -0.12526,0.21653 0.12461,0.0663 0.55526,-0.33391 0.43065,-0.40019 0.88617,-0.72761 1.01227,-0.72761 z m -66.410409,-0.26458 c 0.1261,0 0.41724,0.16451 0.64698,0.36558 0.876543,0.76715 1.473578,0.7424 1.781678,-0.0738 0.393856,-1.043451 0.08178,-1.476801 -0.872551,-1.211641 -0.415801,0.11553 -0.881454,0.22094 -1.034783,0.23424 -0.35583,0.0309 -1.789911,1.230391 -2.088861,1.747171 -0.125257,0.21654 0.12461,0.0663 0.555262,-0.33391 0.430652,-0.40018 0.886174,-0.7276 1.012275,-0.7276 z m 26.16363,-1.117351 c -0.22558,-0.365 -1.09268,-0.21824 -1.25814,0.21294 -0.300107,0.782081 -0.161896,0.880541 0.6123,0.43622 0.42509,-0.24397 0.71572,-0.53609 0.64584,-0.64916 z m 14.940479,-1.33005 c 0.0954,-0.42091 -0.25312,-0.13897 -1.47075,1.18997 l -1.26242,1.377821 1.3441,-1.184671 c 0.73926,-0.65158 1.36434,-1.27398 1.38907,-1.38312 z m 34.43587,1.90904 c -0.14178,-0.2649 -0.18593,-0.66886 -0.0981,-0.89769 0.27622,-0.71983 -0.12954,-0.45166 -0.55163,0.36457 -0.50885,0.984001 -0.52218,0.932331 0.25211,0.976971 0.55589,0.032 0.61626,-0.0353 0.39764,-0.443851 z m -66.410415,-0.26458 c -0.141775,-0.26491 -0.185928,-0.66886 -0.09812,-0.89769 0.276225,-0.71983 -0.129537,-0.45166 -0.551627,0.36457 -0.508844,0.984001 -0.522177,0.93233 0.252111,0.976971 0.555887,0.032 0.616264,-0.0353 0.397636,-0.443851 z m 24.015639,-3.35514 c 1.682216,-1.70725 2.478996,-2.0168 2.667796,-1.03643 0.0542,0.28156 -0.28024,0.89342 -0.79071,1.44653 -0.94424,1.02309 -0.51013,0.74876 1.27429,-0.80528 l 1.10064,-0.95854 -0.70377,-0.27306 c -0.88165,-0.34208 -2.71647,-0.82629 -3.138446,-0.82825 -0.33359,-0.002 -1.33471,1.36303 -2.59522,3.53742 -0.74522,1.2855 -0.74563,1.28878 -0.11768,0.95271 0.34656,-0.18547 1.38295,-1.10127 2.3031,-2.0351 z m 29.966936,1.51224 c 0.33803,-0.65973 0.33745,-0.66015 -0.22251,-0.16307 -0.30878,0.27411 -0.49278,0.60945 -0.40888,0.7452 0.17894,0.28953 0.18997,0.27936 0.63139,-0.58213 z m -66.410416,-0.26458 c 0.338037,-0.65973 0.337454,-0.66015 -0.222504,-0.16308 -0.308785,0.27411 -0.492782,0.60946 -0.408879,0.74521 0.178937,0.28953 0.18997,0.27936 0.631383,-0.58213 z m 34.63571,-4.13826 c 0.2655,-0.22897 -0.94358,-0.0602 -1.30087,0.1816 -0.28984,0.19614 -0.1828,0.22068 0.39688,0.091 0.43656,-0.0977 0.84336,-0.22033 0.90399,-0.27262 z m 44.349626,-1.08726 c -0.20556,-1.12487 -0.80606,-2.18281 -1.239,-2.18281 -0.19631,0 -0.20554,0.10752 -0.0284,0.33073 0.31165,0.39265 0.99251,2.36173 0.91487,2.64583 -0.0298,0.10914 0.0781,0.19844 0.23979,0.19844 0.19561,0 0.23334,-0.33211 0.11272,-0.99219 z m -66.410416,-0.26458 c -0.205555,-1.12488 -0.806059,-2.18282 -1.238994,-2.18282 -0.196315,0 -0.205541,0.10752 -0.02838,0.33073 0.311652,0.39266 0.992512,2.36174 0.914865,2.64584 -0.02983,0.10914 0.07808,0.19843 0.239792,0.19843 0.195612,0 0.233341,-0.3321 0.112717,-0.99218 z m 61.611286,-1.69694 c -0.23592,-0.38172 -0.63527,0.0354 -0.62629,0.65422 0.008,0.56064 0.0209,0.56319 0.3884,0.0777 0.20899,-0.2761 0.31604,-0.60547 0.23789,-0.73192 z m -66.410415,-0.26459 c -0.235913,-0.38171 -0.635267,0.0354 -0.626287,0.65423 0.0081,0.56063 0.0209,0.56319 0.3884,0.0777 0.208992,-0.2761 0.31604,-0.60546 0.237887,-0.73191 z"
       id="path181" /></g></svg>
